HIERARCHY
ROOT Root
{
  OFFSET 0.0 0.0 0.0
  CHANNELS 6 Xposition Yposition Zposition Zrotation Yrotation Xrotation
  JOINT Hips
  {
    OFFSET 0.0 100.0 0.0
    CHANNELS 6 Xposition Yposition Zposition Zrotation Yrotation Xrotation
    JOINT Spine1
    {
      OFFSET 5.003913 -0.037094 -0.013727
      CHANNELS 3 Zrotation Yrotation Xrotation
      JOINT Spine2
      {
        OFFSET 7.125363 -1e-06 0.0
        CHANNELS 3 Zrotation Yrotation Xrotation
        JOINT Chest
        {
          OFFSET 7.594027 1e-06 0.0
          CHANNELS 3 Zrotation Yrotation Xrotation
          JOINT Neck1
          {
            OFFSET 26.313086 -0.460272 -0.181672
            CHANNELS 3 Zrotation Yrotation Xrotation
            JOINT Neck2
            {
              OFFSET 8.045911 0.0 0.0
              CHANNELS 3 Zrotation Yrotation Xrotation
              JOINT Head
              {
                OFFSET 6.432774 0.0 0.0
                CHANNELS 3 Zrotation Yrotation Xrotation
                JOINT HeadEnd
                {
                  OFFSET 16.169773 0.06451 0.00362
                  CHANNELS 3 Zrotation Yrotation Xrotation
                }
                JOINT Jaw
                {
                  OFFSET 0.108741 3.12938 0.002639
                  CHANNELS 3 Zrotation Yrotation Xrotation
                }
                JOINT LeftEye
                {
                  OFFSET 4.45173 8.166359 3.206392
                  CHANNELS 3 Zrotation Yrotation Xrotation
                }
                JOINT RightEye
                {
                  OFFSET 4.436895 8.135758 -3.222429
                  CHANNELS 3 Zrotation Yrotation Xrotation
                }
              }
            }
          }
          JOINT LeftShoulder
          {
            OFFSET 23.218927 5.195579 1.621656
            CHANNELS 3 Zrotation Yrotation Xrotation
            JOINT LeftArm
            {
              OFFSET 15.902118 2e-06 -2e-06
              CHANNELS 3 Zrotation Yrotation Xrotation
              JOINT LeftForeArm
              {
                OFFSET 28.739307 0.0 -1e-06
                CHANNELS 3 Zrotation Yrotation Xrotation
                JOINT LeftHand
                {
                  OFFSET 27.093981 -4e-06 0.0
                  CHANNELS 3 Zrotation Yrotation Xrotation
                  JOINT LeftHandThumb1
                  {
                    OFFSET 2.276781 3.380274 0.83384
                    CHANNELS 3 Zrotation Yrotation Xrotation
                    JOINT LeftHandThumb2
                    {
                      OFFSET 4.705309 -1e-06 -1e-06
                      CHANNELS 3 Zrotation Yrotation Xrotation
                      JOINT LeftHandThumb3
                      {
                        OFFSET 2.798515 0.0 3e-06
                        CHANNELS 3 Zrotation Yrotation Xrotation
                        JOINT LeftHandThumbEnd
                        {
                          OFFSET 3.180793 4e-06 -4e-06
                          CHANNELS 3 Zrotation Yrotation Xrotation
                        }
                      }
                    }
                  }
                  JOINT LeftHandIndex1
                  {
                    OFFSET 3.247786 2.352677 0.137192
                    CHANNELS 3 Zrotation Yrotation Xrotation
                    JOINT LeftHandIndex2
                    {
                      OFFSET 6.367095 1e-06 0.0
                      CHANNELS 3 Zrotation Yrotation Xrotation
                      JOINT LeftHandIndex3
                      {
                        OFFSET 3.662364 0.0 0.0
                        CHANNELS 3 Zrotation Yrotation Xrotation
                        JOINT LeftHandIndex4
                        {
                          OFFSET 2.329242 4e-06 -4e-06
                          CHANNELS 3 Zrotation Yrotation Xrotation
                          JOINT LeftHandIndexEnd
                          {
                            OFFSET 2.767823 1e-06 0.0
                            CHANNELS 3 Zrotation Yrotation Xrotation
                          }
                        }
                      }
                    }
                  }
                  JOINT LeftHandMiddle1
                  {
                    OFFSET 3.163612 0.945023 -0.406112
                    CHANNELS 3 Zrotation Yrotation Xrotation
                    JOINT LeftHandMiddle2
                    {
                      OFFSET 6.276789 3e-06 0.0
                      CHANNELS 3 Zrotation Yrotation Xrotation
                      JOINT LeftHandMiddle3
                      {
                        OFFSET 4.35652 -1e-06 4e-06
                        CHANNELS 3 Zrotation Yrotation Xrotation
                        JOINT LeftHandMiddle4
                        {
                          OFFSET 2.996877 0.0 8e-06
                          CHANNELS 3 Zrotation Yrotation Xrotation
                          JOINT LeftHandMiddleEnd
                          {
                            OFFSET 2.323256 3e-06 -4e-06
                            CHANNELS 3 Zrotation Yrotation Xrotation
                          }
                        }
                      }
                    }
                  }
                  JOINT LeftHandRing1
                  {
                    OFFSET 2.882606 -0.309162 0.107445
                    CHANNELS 3 Zrotation Yrotation Xrotation
                    JOINT LeftHandRing2
                    {
                      OFFSET 6.033198 0.0 4e-06
                      CHANNELS 3 Zrotation Yrotation Xrotation
                      JOINT LeftHandRing3
                      {
                        OFFSET 4.350578 3e-06 0.0
                        CHANNELS 3 Zrotation Yrotation Xrotation
                        JOINT LeftHandRing4
                        {
                          OFFSET 2.651321 2e-06 -7e-06
                          CHANNELS 3 Zrotation Yrotation Xrotation
                          JOINT LeftHandRingEnd
                          {
                            OFFSET 1.937663 1e-06 -4e-06
                            CHANNELS 3 Zrotation Yrotation Xrotation
                          }
                        }
                      }
                    }
                  }
                  JOINT LeftHandPinky1
                  {
                    OFFSET 2.865315 -1.525436 0.575687
                    CHANNELS 3 Zrotation Yrotation Xrotation
                    JOINT LeftHandPinky2
                    {
                      OFFSET 5.54936 1e-06 -8e-06
                      CHANNELS 3 Zrotation Yrotation Xrotation
                      JOINT LeftHandPinky3
                      {
                        OFFSET 3.070974 0.0 -4e-06
                        CHANNELS 3 Zrotation Yrotation Xrotation
                        JOINT LeftHandPinky4
                        {
                          OFFSET 1.549672 1e-06 0.0
                          CHANNELS 3 Zrotation Yrotation Xrotation
                          JOINT LeftHandPinkyEnd
                          {
                            OFFSET 1.952123 0.0 0.0
                            CHANNELS 3 Zrotation Yrotation Xrotation
                          }
                        }
                      }
                    }
                  }
                }
              }
            }
          }
          JOINT RightShoulder
          {
            OFFSET 23.161716 5.296122 -1.380114
            CHANNELS 3 Zrotation Yrotation Xrotation
            JOINT RightArm
            {
              OFFSET -16.027195 -2e-06 1.1e-05
              CHANNELS 3 Zrotation Yrotation Xrotation
              JOINT RightForeArm
              {
                OFFSET -28.736639 4e-06 2e-06
                CHANNELS 3 Zrotation Yrotation Xrotation
                JOINT RightHand
                {
                  OFFSET -27.133619 6e-06 0.0
                  CHANNELS 3 Zrotation Yrotation Xrotation
                  JOINT RightHandThumb1
                  {
                    OFFSET -2.274328 -3.351035 -0.83067
                    CHANNELS 3 Zrotation Yrotation Xrotation
                    JOINT RightHandThumb2
                    {
                      OFFSET -4.703594 -3e-06 2e-06
                      CHANNELS 3 Zrotation Yrotation Xrotation
                      JOINT RightHandThumb3
                      {
                        OFFSET -2.794935 -4e-06 -3e-06
                        CHANNELS 3 Zrotation Yrotation Xrotation
                        JOINT RightHandThumbEnd
                        {
                          OFFSET -3.183852 4e-06 1e-06
                          CHANNELS 3 Zrotation Yrotation Xrotation
                        }
                      }
                    }
                  }
                  JOINT RightHandIndex1
                  {
                    OFFSET -3.253496 -2.33755 -0.127667
                    CHANNELS 3 Zrotation Yrotation Xrotation
                    JOINT RightHandIndex2
                    {
                      OFFSET -6.344434 0.0 0.0
                      CHANNELS 3 Zrotation Yrotation Xrotation
                      JOINT RightHandIndex3
                      {
                        OFFSET -3.654871 0.0 -8e-06
                        CHANNELS 3 Zrotation Yrotation Xrotation
                        JOINT RightHandIndex4
                        {
                          OFFSET -2.327586 -1e-06 0.0
                          CHANNELS 3 Zrotation Yrotation Xrotation
                          JOINT RightHandIndexEnd
                          {
                            OFFSET -2.770001 3e-06 8e-06
                            CHANNELS 3 Zrotation Yrotation Xrotation
                          }
                        }
                      }
                    }
                  }
                  JOINT RightHandMiddle1
                  {
                    OFFSET -3.168223 -0.944764 0.411762
                    CHANNELS 3 Zrotation Yrotation Xrotation
                    JOINT RightHandMiddle2
                    {
                      OFFSET -6.266691 -1e-06 -4e-06
                      CHANNELS 3 Zrotation Yrotation Xrotation
                      JOINT RightHandMiddle3
                      {
                        OFFSET -4.348901 0.0 0.0
                        CHANNELS 3 Zrotation Yrotation Xrotation
                        JOINT RightHandMiddle4
                        {
                          OFFSET -3.00024 2e-06 -4e-06
                          CHANNELS 3 Zrotation Yrotation Xrotation
                          JOINT RightHandMiddleEnd
                          {
                            OFFSET -2.321477 -4e-06 -4e-06
                            CHANNELS 3 Zrotation Yrotation Xrotation
                          }
                        }
                      }
                    }
                  }
                  JOINT RightHandRing1
                  {
                    OFFSET -2.885654 0.293261 -0.119232
                    CHANNELS 3 Zrotation Yrotation Xrotation
                    JOINT RightHandRing2
                    {
                      OFFSET -6.032835 -1e-06 -4e-06
                      CHANNELS 3 Zrotation Yrotation Xrotation
                      JOINT RightHandRing3
                      {
                        OFFSET -4.33881 0.0 -4e-06
                        CHANNELS 3 Zrotation Yrotation Xrotation
                        JOINT RightHandRing4
                        {
                          OFFSET -2.654903 -4e-06 -4e-06
                          CHANNELS 3 Zrotation Yrotation Xrotation
                          JOINT RightHandRingEnd
                          {
                            OFFSET -1.935122 0.0 4e-06
                            CHANNELS 3 Zrotation Yrotation Xrotation
                          }
                        }
                      }
                    }
                  }
                  JOINT RightHandPinky1
                  {
                    OFFSET -2.866241 1.503904 -0.60527
                    CHANNELS 3 Zrotation Yrotation Xrotation
                    JOINT RightHandPinky2
                    {
                      OFFSET -5.553177 -2e-06 0.0
                      CHANNELS 3 Zrotation Yrotation Xrotation
                      JOINT RightHandPinky3
                      {
                        OFFSET -3.062664 -1e-06 -4e-06
                        CHANNELS 3 Zrotation Yrotation Xrotation
                        JOINT RightHandPinky4
                        {
                          OFFSET -1.546529 2e-06 4e-06
                          CHANNELS 3 Zrotation Yrotation Xrotation
                          JOINT RightHandPinkyEnd
                          {
                            OFFSET -1.952341 0.0 -4e-06
                            CHANNELS 3 Zrotation Yrotation Xrotation
                          }
                        }
                      }
                    }
                  }
                }
              }
            }
          }
        }
      }
    }
    JOINT LeftLeg
    {
      OFFSET -8.443107 2.567604 10.043214
      CHANNELS 3 Zrotation Yrotation Xrotation
      JOINT LeftShin
      {
        OFFSET 43.229198 1e-06 -1e-06
        CHANNELS 3 Zrotation Yrotation Xrotation
        JOINT LeftFoot
        {
          OFFSET 42.298611 1e-06 1e-06
          CHANNELS 3 Zrotation Yrotation Xrotation
          JOINT LeftToeBase
          {
            OFFSET 14.165858 1e-06 0.0
            CHANNELS 3 Zrotation Yrotation Xrotation
            JOINT LeftToeEnd
            {
              OFFSET 6.7141 -0.234461 0.0
              CHANNELS 3 Zrotation Yrotation Xrotation
            }
          }
        }
      }
    }
    JOINT RightLeg
    {
      OFFSET -8.303923 2.592729 -10.047278
      CHANNELS 3 Zrotation Yrotation Xrotation
      JOINT RightShin
      {
        OFFSET -43.369682 0.0 1e-06
        CHANNELS 3 Zrotation Yrotation Xrotation
        JOINT RightFoot
        {
          OFFSET -42.260784 4e-06 2e-06
          CHANNELS 3 Zrotation Yrotation Xrotation
          JOINT RightToeBase
          {
            OFFSET -14.222245 -2e-06 -1e-06
            CHANNELS 3 Zrotation Yrotation Xrotation
            JOINT RightToeEnd
            {
              OFFSET -6.660062 0.232574 -2e-06
              CHANNELS 3 Zrotation Yrotation Xrotation
            }
          }
        }
      }
    }
  }
}
MOTION
Frames: 5
Frame Time: 0.03333333333333333
0.0 0.0 0.0 0.0 -0.0 0.0 -10.978897 97.641457 225.177216 96.507584 5.494523 79.281219 0.633003 -1.749352 -0.482235 -10.433996 -0.672879 -0.832734 16.17938 -1.550375 -3.694748 21.588974 -6.311386 2.814585 -2.691298 -0.754639 2.699664 -30.810308 -1.185922 4.36409 6e-06 0.0 -0.0 -0.020904 0.064033 0.159706 -0.076599 0.067816 0.141928 -0.068429 0.043817 0.18624 -112.233231 -70.091179 129.172806 11.888621 -18.837124 10.460471 56.617218 -0.139397 -0.65069 1.457289 -3.181282 -8.533754 17.636616 -26.322725 52.41119 -19.466663 -14.395596 29.410385 1e-06 -8.774821 -5e-06 15.246964 -18.568001 6.562347 -0.609777 -1.795652 -3.889327 -4.807092 -11.046808 -2.93785 2e-06 -20.976017 -1e-06 -5.01997 -25.033554 -4.031881 6e-06 -0.0 -2e-06 -10.634535 -5.686972 -3.565584 10.57327 -17.922947 -3.1139 3e-06 -13.821206 -1e-06 -0.501773 -31.181501 -4.027017 -11.259159 -59.59243 7.797011 -13.982715 -7.150199 -2.875042 13.772726 -8.401491 -3.21824 0.347733 -34.211544 0.771653 -0.963028 -17.733368 2.62102 -2e-06 -0.0 1e-06 -17.346416 -20.095217 -4.201779 21.757557 -1.638371 3.866425 1e-06 -6.338823 1e-06 -1.697588 -22.591743 -6.194006 -0.0 -4e-06 -1e-06 70.31279 -71.014854 128.202942 1.590203 -36.982693 27.801908 55.628487 0.18741 0.516094 -8.930604 -5.816454 20.404478 22.182116 -20.375896 49.933319 -16.701813 -16.743528 28.476524 -4e-06 -12.6906 -2e-06 16.616693 -17.466625 2.332321 -0.105919 -1.513855 -4.275882 -5.039041 -5.612872 -2.953555 4e-06 -11.020525 -2e-06 -6.1113 -15.895334 -3.840469 -0.0 0.0 0.0 -10.283372 -5.680288 -4.341837 11.028296 -11.302406 -2.372635 -1.384269 -14.238581 -6.32012 -0.625439 -26.924194 -3.8276 -3.969817 -50.018574 -3.851435 -13.708526 -7.363475 -3.720939 18.141148 -14.052739 -3.242674 6e-06 -18.787268 -1e-06 -0.42971 -8.456047 2.555501 0.0 0.0 0.0 -15.923538 -20.094482 -5.473582 30.41921 -7.190827 1.735926 3e-06 -8.162927 -2e-06 -1.861901 -22.861475 -6.167942 -1e-06 -2e-06 -1e-06 175.042953 9.023855 -6.398459 22.668692 -0.136434 -0.165558 -83.04747 -10.227766 -3.884944 -6.812232 1.647186 2.027677 -0.999998 0.0 0.0 -12.746544 -17.002682 7.169991 77.960403 -1.109273 0.743648 -47.946011 16.643799 -3.098037 -9.455404 0.726784 1.504695 -1.000002 0.0 0.0 
0.0 0.0 0.0 0.0 -0.0 0.0 -10.782833 97.544983 226.771881 95.98114 5.656327 79.112221 0.904487 -1.579878 -0.688365 -10.297988 -0.642869 -1.039437 16.210808 -1.297219 -3.916894 21.571802 -6.219986 2.864789 -2.704824 -0.75954 2.721901 -31.453274 -1.127185 4.540968 6e-06 0.0 0.0 -0.02537 0.060363 0.118001 -0.049258 0.058532 0.103888 -0.041037 0.046182 0.14099 -111.928207 -70.581955 128.838928 12.056768 -18.84869 9.572574 56.682274 -0.415613 -0.885794 1.096496 -3.264039 -8.183033 17.636625 -26.322731 52.41119 -19.466658 -14.3956 29.410389 2e-06 -8.774821 -1e-06 15.309514 -18.597401 6.479076 -0.609777 -1.795655 -3.889327 -4.80709 -11.046807 -2.93785 3e-06 -20.976011 -1e-06 -5.019974 -25.033548 -4.03188 6e-06 0.0 -1e-06 -10.634533 -5.686972 -3.565588 10.573271 -17.922947 -3.113899 2e-06 -13.821205 1e-06 -0.501781 -31.181501 -4.027015 -11.183355 -59.556355 7.794235 -13.982714 -7.150196 -2.875041 13.772729 -8.401489 -3.218241 0.347731 -34.211544 0.771656 -0.96303 -17.733368 2.62102 0.0 -0.0 1e-06 -17.346418 -20.095217 -4.201779 21.757557 -1.638374 3.866426 2e-06 -6.338822 1e-06 -1.69759 -22.591743 -6.194005 1e-06 -5e-06 -1e-06 70.76973 -70.650543 127.787514 0.896206 -38.050938 27.805799 56.266468 0.257181 0.664855 -8.783144 -5.476863 19.353407 22.182108 -20.375895 49.933319 -16.701807 -16.743528 28.476528 -1e-06 -12.690599 -1e-06 16.681595 -17.688461 2.369792 -0.10592 -1.513856 -4.275881 -5.039042 -5.612873 -2.953557 2e-06 -11.020523 -3e-06 -6.111299 -15.895332 -3.840472 1e-06 0.0 -2e-06 -10.283371 -5.680288 -4.341836 11.028294 -11.302402 -2.372632 -1.384271 -14.238579 -6.320119 -0.625442 -26.924187 -3.827602 -3.979884 -50.190434 -3.912524 -13.708524 -7.363478 -3.720938 18.141146 -14.052738 -3.242672 3e-06 -18.787266 -1e-06 -0.429713 -8.456041 2.555501 0.0 -0.0 -2e-06 -15.923536 -20.094482 -5.473581 30.41921 -7.190821 1.735925 0.0 -8.162925 -0.0 -1.861906 -22.861469 -6.167942 1e-06 -3e-06 -2e-06 176.118546 8.859863 -6.2166 23.1992 -0.142544 -0.150347 -84.455444 -10.381938 -3.496551 -6.638229 1.639053 2.028632 -0.999999 0.0 -0.0 -17.149717 -16.36504 6.229296 80.218361 -0.829111 0.645582 -54.398682 12.257633 -3.672402 -9.235168 0.726053 1.536449 -1.000001 -0.0 -0.0 
0.0 0.0 0.0 0.0 -0.0 0.0 -10.644813 97.55233 228.370667 95.319702 5.546985 78.961342 1.089283 -1.340635 -0.902595 -10.195694 -0.542206 -1.250869 16.15414 -0.983784 -4.163877 21.386847 -6.060208 2.827945 -2.707336 -0.733914 2.88541 -31.889931 -1.188824 4.584923 6e-06 0.0 -0.0 -0.02849 0.05834 0.087629 -0.037139 0.056147 0.076027 -0.03346 0.045743 0.106775 -111.88343 -71.041061 128.703003 11.904164 -18.940037 8.765475 56.966663 -0.692733 -1.114737 0.849292 -3.7006 -8.071232 17.636625 -26.322729 52.411179 -19.466654 -14.395597 29.410381 1e-06 -8.774822 -6e-06 15.349256 -18.513149 6.388882 -0.609778 -1.795654 -3.889329 -4.807088 -11.046811 -2.937847 4e-06 -20.976019 -0.0 -5.019972 -25.033556 -4.031878 6e-06 0.0 0.0 -10.634533 -5.686969 -3.565587 10.573271 -17.922951 -3.113899 3e-06 -13.821206 0.0 -0.501778 -31.181505 -4.027015 -11.016358 -59.396015 7.718431 -13.982714 -7.1502 -2.875042 13.772728 -8.401488 -3.21824 0.347731 -34.211544 0.771655 -0.963028 -17.733366 2.62102 -1e-06 -0.0 1e-06 -17.34642 -20.095217 -4.20178 21.757555 -1.638374 3.866428 1e-06 -6.338823 -0.0 -1.697589 -22.591742 -6.194004 0.0 -4e-06 -3e-06 70.852699 -70.220924 127.694595 0.185615 -38.770302 27.835852 56.965363 0.35577 0.823942 -8.285357 -5.413233 17.692036 22.182119 -20.375895 49.933315 -16.701811 -16.74353 28.476528 -1e-06 -12.690603 -1e-06 16.706995 -17.8894 2.438589 -0.105919 -1.513855 -4.275882 -5.039042 -5.612872 -2.953555 3e-06 -11.020524 -3e-06 -6.111301 -15.895334 -3.840471 1e-06 -1e-06 -3e-06 -10.283373 -5.680289 -4.341836 11.028294 -11.302404 -2.372633 -1.384271 -14.23858 -6.320118 -0.625441 -26.924187 -3.827601 -3.996831 -50.287426 -3.964945 -13.708527 -7.363477 -3.720938 18.14115 -14.052735 -3.242673 5e-06 -18.787268 -3e-06 -0.429713 -8.456041 2.555502 1e-06 -0.0 0.0 -15.923541 -20.094482 -5.473581 30.419218 -7.190824 1.735927 2e-06 -8.162925 -1e-06 -1.861905 -22.861469 -6.167944 1e-06 -1e-06 -3e-06 177.227722 8.435015 -6.216448 23.171907 -0.13856 -0.116212 -85.566887 -10.297624 -3.127538 -6.557074 1.598927 2.021584 -0.999998 0.0 0.0 -21.071039 -15.337701 4.756341 78.843437 -0.590045 0.580815 -59.288235 9.053999 -4.48763 -9.474216 0.710776 1.538538 -1.000002 -0.0 0.0 
0.0 0.0 0.0 0.0 -0.0 0.0 -10.555872 97.634964 229.969742 94.630737 5.182014 78.816231 1.180467 -1.067279 -1.086058 -10.138488 -0.431437 -1.483907 16.053555 -0.617365 -4.38595 21.037014 -5.933667 2.701247 -2.72198 -0.683454 3.145279 -32.153473 -1.320437 4.591358 6e-06 -0.0 0.0 -0.033113 0.056937 0.059063 -0.034442 0.055524 0.051883 -0.036046 0.044823 0.071873 -112.145576 -71.43605 128.85997 11.530165 -19.036345 8.068295 57.438408 -0.907468 -1.332317 0.623863 -4.263626 -7.835364 17.636625 -26.322737 52.411182 -19.466652 -14.395597 29.410385 2e-06 -8.774821 -2e-06 15.341125 -18.408186 6.360529 -0.609778 -1.795656 -3.889328 -4.807087 -11.046805 -2.937845 3e-06 -20.976015 -0.0 -5.019973 -25.033554 -4.03188 6e-06 0.0 1e-06 -10.634534 -5.686973 -3.565589 10.57327 -17.922947 -3.113896 1e-06 -13.821205 2e-06 -0.501781 -31.181498 -4.027011 -10.915459 -59.288734 7.661695 -13.982712 -7.150198 -2.875041 13.772725 -8.401489 -3.21824 0.347728 -34.21154 0.771658 -0.963033 -17.733366 2.62102 0.0 -0.0 3e-06 -17.346416 -20.095213 -4.20178 21.757557 -1.638373 3.866426 -0.0 -6.338824 1e-06 -1.697591 -22.591742 -6.194002 -0.0 -4e-06 -1e-06 70.182625 -69.739426 128.318008 -0.448843 -39.078636 27.802895 57.45528 0.500395 0.936766 -7.771311 -5.455782 16.097719 22.182116 -20.375889 49.933308 -16.701809 -16.743526 28.476524 -2e-06 -12.6906 -2e-06 16.68528 -17.985003 2.501179 -0.10592 -1.513856 -4.275882 -5.039041 -5.612871 -2.953555 3e-06 -11.02052 -1e-06 -6.111297 -15.89533 -3.840471 0.0 0.0 -1e-06 -10.283369 -5.680289 -4.341839 11.028291 -11.302403 -2.372632 -1.384269 -14.238579 -6.320119 -0.62544 -26.924187 -3.827599 -4.052978 -50.271835 -3.969579 -13.708523 -7.363476 -3.72094 18.141146 -14.052736 -3.242675 5e-06 -18.787266 -2e-06 -0.429712 -8.456042 2.555501 1e-06 0.0 -1e-06 -15.923534 -20.094482 -5.473586 30.419205 -7.190824 1.735928 2e-06 -8.162922 -2e-06 -1.861903 -22.861467 -6.167942 1e-06 -4e-06 -1e-06 178.321304 7.878304 -6.346515 22.650341 -0.116292 -0.088085 -86.405571 -10.042381 -2.787075 -6.517635 1.540574 2.019317 -0.999999 0.0 0.0 -24.275579 -14.14791 2.732351 73.867851 -0.42239 0.504797 -63.059277 7.465497 -6.086366 -9.865168 0.677442 1.519425 -1.000002 0.0 1e-06 
0.0 0.0 0.0 0.0 -0.0 0.0 -10.497058 97.750633 231.546234 94.065895 4.577485 78.659996 1.129659 -0.833688 -1.192839 -10.138557 -0.357637 -1.726747 15.961332 -0.23979 -4.540917 20.531975 -5.835668 2.561322 -2.745755 -0.634159 3.364011 -32.289093 -1.447389 4.630457 6e-06 -0.0 0.0 -0.034916 0.053321 0.028319 -0.030935 0.041664 0.026122 -0.032383 0.052112 0.034535 -112.531097 -71.722305 129.114502 11.109318 -19.069269 7.6276 58.029999 -1.060752 -1.573274 0.308839 -4.716018 -7.352532 17.636631 -26.322729 52.411186 -19.466661 -14.395597 29.410389 -1e-06 -8.774821 -3e-06 15.325198 -18.371294 6.383495 -0.609775 -1.795653 -3.889329 -4.807087 -11.046812 -2.937849 4e-06 -20.976019 -1e-06 -5.01997 -25.03356 -4.031878 5e-06 0.0 1e-06 -10.634535 -5.68697 -3.565588 10.573275 -17.922951 -3.113901 3e-06 -13.82121 -1e-06 -0.501775 -31.181505 -4.027016 -10.943399 -59.326859 7.63713 -13.982715 -7.150198 -2.875042 13.772731 -8.401491 -3.21824 0.347732 -34.211555 0.771657 -0.96303 -17.733372 2.621021 0.0 -1e-06 1e-06 -17.346418 -20.095215 -4.201778 21.757557 -1.638373 3.866428 1e-06 -6.338825 -0.0 -1.697589 -22.591747 -6.194007 0.0 -4e-06 -1e-06 68.875336 -69.262924 129.563889 -0.94643 -39.043694 27.618114 57.612755 0.619706 0.978638 -7.517316 -5.508437 15.001859 22.182114 -20.375898 49.933327 -16.701815 -16.743528 28.476536 -3e-06 -12.6906 1e-06 16.632837 -17.973507 2.543472 -0.105919 -1.513856 -4.275881 -5.039041 -5.612872 -2.953556 5e-06 -11.020527 -2e-06 -6.111297 -15.895334 -3.84047 -0.0 -1e-06 -1e-06 -10.283369 -5.680288 -4.341839 11.028296 -11.302407 -2.372634 -1.384268 -14.238584 -6.320122 -0.625439 -26.924194 -3.8276 -4.16666 -50.202335 -3.919128 -13.708525 -7.363475 -3.720939 18.14115 -14.052739 -3.242675 7e-06 -18.787271 -1e-06 -0.429712 -8.456044 2.555503 0.0 0.0 -0.0 -15.923532 -20.094482 -5.473584 30.41921 -7.190829 1.735924 1e-06 -8.162928 1e-06 -1.8619 -22.861473 -6.167942 0.0 -2e-06 -1e-06 179.291428 7.455514 -6.527195 21.720922 -0.080256 -0.079347 -86.979515 -9.725627 -2.370598 -6.462791 1.483679 2.021199 -0.999999 -0.0 -0.0 -26.578485 -13.051122 0.224337 65.847397 -0.317029 0.424523 -66.029465 6.54264 -8.312613 -10.291792 0.653878 1.521465 -1.000003 1e-06 1e-06 
